<svg width="163" height="30" fill="none" xmlns="http://www.w3.org/2000/svg"><path fill-rule="evenodd" clip-rule="evenodd" d="M106.11 9.875c-.884-.557-1.942-.835-3.172-.835-1.327 0-2.514.331-3.562.994-1.048.662-1.874 1.612-2.48 2.85-.606 1.24-.908 2.703-.908 4.393 0 1.67.302 3.13.908 4.377.606 1.248 1.432 2.204 2.48 2.866 1.048.662 2.235.994 3.562.994 1.23 0 2.288-.279 3.172-.836a4.855 4.855 0 0 0 1.932-2.275v2.909h4.932V4h-4.932v8.15a4.855 4.855 0 0 0-1.932-2.275ZM52.931 25.312V18.17h3.057c1.596 0 2.952-.284 4.067-.85 1.115-.566 1.956-1.344 2.523-2.333.567-.989.85-2.117.85-3.384 0-2.035-.634-3.653-1.903-4.853-1.269-1.2-3.114-1.8-5.537-1.8H48v20.362h4.931Zm5.48-13.709c0 1.747-.99 2.621-2.97 2.621h-2.51v-5.3h2.51c1.98 0 2.97.894 2.97 2.68Zm12.372.663a6.993 6.993 0 0 1 2.379-2.333 6.08 6.08 0 0 1 3.158-.864v5.27h-1.413c-1.308 0-2.322.279-3.043.835-.72.557-1.081 1.498-1.081 2.823v7.315H65.85V9.242h4.932v3.024Zm19.422-2.232c-1.259-.663-2.686-.994-4.282-.994s-3.028.331-4.297.994a7.267 7.267 0 0 0-2.985 2.865c-.72 1.248-1.081 2.707-1.081 4.378 0 1.67.36 3.13 1.081 4.377a7.267 7.267 0 0 0 2.985 2.866c1.269.662 2.701.994 4.297.994 1.596 0 3.023-.332 4.282-.994a7.29 7.29 0 0 0 2.97-2.866c.722-1.248 1.082-2.707 1.082-4.377s-.36-3.13-1.081-4.378a7.29 7.29 0 0 0-2.97-2.865Zm-4.282 3.268c-.942 0-1.735.341-2.38 1.023-.643.681-.965 1.665-.965 2.952 0 1.286.322 2.265.966 2.937.644.672 1.437 1.008 2.379 1.008s1.73-.336 2.365-1.008c.634-.672.951-1.65.951-2.937s-.317-2.27-.951-2.952c-.635-.682-1.423-1.023-2.365-1.023Zm18.601.058c-1.058 0-1.908.346-2.552 1.037-.644.691-.966 1.651-.966 2.88 0 1.229.322 2.189.966 2.88.644.691 1.494 1.037 2.552 1.037 1.038 0 1.889-.356 2.552-1.066.663-.71.995-1.66.995-2.851 0-1.21-.332-2.165-.995-2.866-.663-.7-1.514-1.051-2.552-1.051Zm22.898 11.952h4.96V9.242h-4.96v8.524c0 1.172-.289 2.074-.865 2.708-.577.633-1.365.95-2.365.95-.961 0-1.726-.302-2.293-.907-.567-.605-.851-1.455-.851-2.549V9.242h-4.902v9.33c0 2.151.543 3.84 1.629 5.07 1.087 1.228 2.552 1.843 4.398 1.843 1.211 0 2.274-.279 3.187-.835a5.347 5.347 0 0 0 2.062-2.247v2.909Zm15.63-16.272c2.077 0 3.817.571 5.22 1.714 1.404 1.142 2.288 2.712 2.653 4.708h-5.219c-.154-.69-.471-1.228-.952-1.612-.481-.384-1.086-.576-1.817-.576-.865 0-1.576.34-2.134 1.022-.558.682-.836 1.675-.836 2.98 0 1.306.278 2.3.836 2.982.558.681 1.269 1.022 2.134 1.022.731 0 1.336-.192 1.817-.576.481-.384.798-.922.952-1.613h5.219c-.365 1.997-1.249 3.567-2.653 4.709-1.403 1.142-3.143 1.714-5.22 1.714-1.576 0-2.975-.332-4.196-.994-1.22-.662-2.177-1.618-2.869-2.866-.692-1.248-1.038-2.707-1.038-4.377 0-1.69.341-3.154 1.023-4.392a7.012 7.012 0 0 1 2.87-2.851c1.23-.663 2.634-.994 4.21-.994Zm19.553 16.272v-4.234h-1.557c-.615 0-1.053-.124-1.312-.374-.26-.25-.39-.691-.39-1.325v-5.99h3.23V9.242h-3.23V5.296h-4.931v3.946h-2.163v4.147h2.163v5.904c0 2.15.524 3.691 1.572 4.622 1.047.931 2.513 1.397 4.397 1.397h2.221Z" fill="#173A56"/><path fill-rule="evenodd" clip-rule="evenodd" d="M2.506 27.567A2.514 2.514 0 0 1 0 25.06v-8.763h6.309v-.01h3.792c.977-.024 1.805-.876 1.805-1.88 0-1.027-.853-1.879-1.88-1.879H5.013v.002H0v-2.508a2.514 2.514 0 0 1 2.506-2.507h7.52c1.905 0 3.534.677 4.862 2.03 1.354 1.329 2.03 2.958 2.03 4.863 0 1.88-.651 3.509-1.98 4.837-1.328 1.329-2.932 2.03-4.812 2.056H5.013v3.76a2.514 2.514 0 0 1-2.507 2.506Z" fill="#02BC6B"/><path fill-rule="evenodd" clip-rule="evenodd" d="M20.078 4.606c2.77 2.69 4.165 6.04 4.165 9.848 0 3.744-1.337 7.09-4.064 9.789L16.31 20.6c1.695-1.678 2.527-3.698 2.527-6.147 0-2.467-.857-4.484-2.594-6.17l3.836-3.678Z" fill="#02897A"/><path fill-rule="evenodd" clip-rule="evenodd" d="M26.004 0C29.993 3.982 32 8.92 32 14.587c0 5.579-1.926 10.513-5.85 14.504l-3.735-3.65c2.922-2.973 4.354-6.578 4.354-10.854 0-4.318-1.48-7.92-4.466-10.902L26.004 0Z" fill="#035B81"/><path fill-rule="evenodd" clip-rule="evenodd" d="M0 21.322h5.013v3.739a2.514 2.514 0 0 1-2.507 2.506A2.514 2.514 0 0 1 0 25.061v-3.74Z" fill="#028E37"/></svg>